<svg width="24" height="24" viewBox="0 0 24 24" fill="none" xmlns="http://www.w3.org/2000/svg">
<mask id="mask0_6_57" style="mask-type:alpha" maskUnits="userSpaceOnUse" x="0" y="0" width="24" height="24">
<rect width="24" height="24" fill="#D9D9D9"/>
</mask>
<g mask="url(#mask0_6_57)">
<path d="M20.3081 18.1447C19.9723 18.9133 19.5749 19.6208 19.1145 20.2713C18.4869 21.158 17.973 21.7718 17.5769 22.1127C16.963 22.6722 16.3052 22.9587 15.6009 22.975C15.0952 22.975 14.4854 22.8324 13.7755 22.5432C13.0634 22.2553 12.4089 22.1127 11.8104 22.1127C11.1828 22.1127 10.5097 22.2553 9.7897 22.5432C9.06861 22.8324 8.48772 22.9832 8.04358 22.9981C7.36813 23.0266 6.69487 22.7319 6.02284 22.1127C5.59392 21.742 5.05742 21.1064 4.41472 20.2061C3.72515 19.2446 3.15823 18.1297 2.7141 16.8587C2.23844 15.4857 2 14.1563 2 12.8692C2 11.3948 2.32149 10.1232 2.96542 9.05759C3.4715 8.20166 4.14476 7.52647 4.98739 7.03081C5.83003 6.53514 6.7405 6.28256 7.721 6.2664C8.2575 6.2664 8.96104 6.43085 9.83533 6.75405C10.7072 7.07833 11.267 7.24279 11.5124 7.24279C11.6959 7.24279 12.3177 7.0505 13.372 6.66714C14.3689 6.31162 15.2103 6.16441 15.8996 6.2224C17.7674 6.37178 19.1707 7.10142 20.1039 8.41595C18.4334 9.41895 17.6071 10.8238 17.6235 12.626C17.6386 14.0297 18.1525 15.1979 19.1624 16.1254C19.6201 16.5558 20.1313 16.8885 20.7 17.1248C20.5767 17.4793 20.4465 17.8188 20.3081 18.1447ZM16.0243 1.44013C16.0243 2.54038 15.6187 3.56768 14.8102 4.51854C13.8345 5.64892 12.6543 6.30211 11.3745 6.19904C11.3582 6.06704 11.3488 5.92812 11.3488 5.78214C11.3488 4.7259 11.8128 3.59552 12.6368 2.67127C13.0482 2.20331 13.5714 1.81421 14.2058 1.50381C14.8389 1.19805 15.4378 1.02896 16.001 1C16.0175 1.14709 16.0243 1.2942 16.0243 1.44013Z" fill="#B3B3B3"/>
</g>
</svg>
