<svg width="34" height="34" viewBox="0 0 34 34" fill="none" xmlns="http://www.w3.org/2000/svg">
<rect width="34" height="34" rx="8" fill="#315F80"/>
<path d="M18.9807 10.2227C18.0322 10.2227 17.1225 10.5995 16.4518 11.2702C15.7811 11.9409 15.4043 12.8505 15.4043 13.7991V15.7903H13.4904C13.3945 15.7903 13.3164 15.8676 13.3164 15.9643V18.5934C13.3164 18.6893 13.3937 18.7674 13.4904 18.7674H15.4043V24.161C15.4043 24.2569 15.4816 24.335 15.5782 24.335H18.2074C18.3033 24.335 18.3814 24.2577 18.3814 24.161V18.7674H20.3123C20.3919 18.7674 20.4615 18.7133 20.4808 18.6359L21.1381 16.0068C21.1446 15.9811 21.1451 15.9543 21.1397 15.9284C21.1342 15.9026 21.123 15.8782 21.1067 15.8574C21.0904 15.8365 21.0696 15.8196 21.0459 15.808C21.0221 15.7963 20.996 15.7903 20.9696 15.7903H18.3814V13.7991C18.3814 13.7204 18.3969 13.6424 18.427 13.5697C18.4571 13.497 18.5013 13.431 18.5569 13.3753C18.6126 13.3197 18.6786 13.2755 18.7513 13.2454C18.824 13.2153 18.902 13.1998 18.9807 13.1998H20.9912C21.0871 13.1998 21.1652 13.1225 21.1652 13.0258V10.3966C21.1652 10.3008 21.0879 10.2227 20.9912 10.2227H18.9807Z" fill="white"/>
</svg>
