<svg width="34" height="34" viewBox="0 0 34 34" fill="none" xmlns="http://www.w3.org/2000/svg">
<rect width="34" height="34" rx="8" fill="#315F80"/>
<path d="M20.7774 8H13.2316C9.95397 8 8 9.953 8 13.229V20.762C8 24.047 9.95397 26 13.2316 26H20.7684C24.046 26 26 24.047 26 20.771V13.229C26.009 9.953 24.055 8 20.7774 8ZM17.0045 20.492C15.0775 20.492 13.5107 18.926 13.5107 17C13.5107 15.074 15.0775 13.508 17.0045 13.508C18.9314 13.508 20.4982 15.074 20.4982 17C20.4982 18.926 18.9314 20.492 17.0045 20.492ZM22.3351 12.392C22.2901 12.5 22.2271 12.599 22.146 12.689C22.056 12.77 21.957 12.833 21.8489 12.878C21.7408 12.923 21.6238 12.95 21.5067 12.95C21.2636 12.95 21.0385 12.86 20.8674 12.689C20.7864 12.599 20.7233 12.5 20.6783 12.392C20.6333 12.284 20.6063 12.167 20.6063 12.05C20.6063 11.933 20.6333 11.816 20.6783 11.708C20.7233 11.591 20.7864 11.501 20.8674 11.411C21.0745 11.204 21.3897 11.105 21.6778 11.168C21.7408 11.177 21.7949 11.195 21.8489 11.222C21.9029 11.24 21.957 11.267 22.011 11.303C22.056 11.33 22.101 11.375 22.146 11.411C22.2271 11.501 22.2901 11.591 22.3351 11.708C22.3802 11.816 22.4072 11.933 22.4072 12.05C22.4072 12.167 22.3802 12.284 22.3351 12.392Z" fill="white"/>
</svg>
