<svg width="19" height="19" viewBox="0 0 19 19" fill="none" xmlns="http://www.w3.org/2000/svg">
<path d="M4.35545 7.71065C6.20862 7.71065 7.7109 6.20837 7.7109 4.35521C7.7109 2.50204 6.20862 0.999756 4.35545 0.999756C2.50228 0.999756 1 2.50204 1 4.35521C1 6.20837 2.50228 7.71065 4.35545 7.71065Z" stroke="#315F80" stroke-width="1.6" stroke-linecap="round" stroke-linejoin="round"/>
<path d="M14.7014 7.71065C16.5546 7.71065 18.0569 6.20837 18.0569 4.35521C18.0569 2.50204 16.5546 0.999756 14.7014 0.999756C12.8482 0.999756 11.346 2.50204 11.346 4.35521C11.346 6.20837 12.8482 7.71065 14.7014 7.71065Z" stroke="#315F80" stroke-width="1.6" stroke-linecap="round" stroke-linejoin="round"/>
<path d="M4.35545 17.997C6.20862 17.997 7.7109 16.4947 7.7109 14.6416C7.7109 12.7884 6.20862 11.2861 4.35545 11.2861C2.50228 11.2861 1 12.7884 1 14.6416C1 16.4947 2.50228 17.997 4.35545 17.997Z" stroke="#315F80" stroke-width="1.6" stroke-linecap="round" stroke-linejoin="round"/>
<path d="M11.346 14.6416H18.0569M14.7014 11.2861V17.997" stroke="#315F80" stroke-width="1.6" stroke-linecap="round" stroke-linejoin="round"/>
</svg>
