<svg width="34" height="34" viewBox="0 0 34 34" fill="none" xmlns="http://www.w3.org/2000/svg">
<rect width="34" height="34" rx="8" fill="#315F80"/>
<path fill-rule="evenodd" clip-rule="evenodd" d="M18.1248 9C19.0223 9 19.7498 9.76112 19.7498 10.7C19.7498 11.9302 20.5866 12.9625 21.6984 13.1989C22.5779 13.3859 23.1459 14.2834 22.9671 15.2035C22.7884 16.1235 21.9306 16.7178 21.051 16.5308C20.5952 16.4338 20.159 16.2799 19.7498 16.0764V20.9C19.7498 23.7166 17.5672 26 14.8749 26C12.1826 26 10 23.7166 10 20.9C10 18.5213 11.5551 16.5268 13.6574 15.9607C14.5265 15.7267 15.4124 16.2741 15.6361 17.1834C15.8598 18.0926 15.3365 19.0195 14.4674 19.2535C13.7662 19.4423 13.2499 20.1102 13.2499 20.9C13.2499 21.8389 13.9774 22.6 14.8749 22.6C15.7724 22.6 16.4999 21.8389 16.4999 20.9V10.7C16.4999 9.76112 17.2273 9 18.1248 9Z" fill="white"/>
</svg>
