<svg width="34" height="34" viewBox="0 0 34 34" fill="none" xmlns="http://www.w3.org/2000/svg">
<rect width="34" height="34" rx="8" fill="#315F80"/>
<path d="M15.1667 19.6L19.18 17.2801L15.1667 14.9603V19.6ZM24.1058 13.5452C24.2063 13.9086 24.2759 14.3958 24.3223 15.0144C24.3765 15.6331 24.3997 16.1666 24.3997 16.6306L24.4461 17.2801C24.4461 18.9736 24.3223 20.2186 24.1058 21.0151C23.9125 21.711 23.464 22.1595 22.768 22.3529C22.4046 22.4534 21.7396 22.523 20.7188 22.5694C19.7136 22.6235 18.7934 22.6467 17.9428 22.6467L16.7133 22.6931C13.4732 22.6931 11.455 22.5694 10.6585 22.3529C9.96253 22.1595 9.51403 21.711 9.32071 21.0151C9.22019 20.6516 9.15059 20.1645 9.10419 19.5459C9.05006 18.9272 9.02687 18.3937 9.02687 17.9297L8.98047 17.2801C8.98047 15.5867 9.10419 14.3417 9.32071 13.5452C9.51403 12.8493 9.96253 12.4008 10.6585 12.2074C11.0219 12.1069 11.6869 12.0373 12.7077 11.9909C13.7129 11.9368 14.6331 11.9136 15.4837 11.9136L16.7133 11.8672C19.9533 11.8672 21.9716 11.9909 22.768 12.2074C23.464 12.4008 23.9125 12.8493 24.1058 13.5452Z" fill="white"/>
</svg>
